<svg id="Calque_1" data-name="Calque 1" xmlns="http://www.w3.org/2000/svg" viewBox="0 0 1000 1000"><path d="M668.06,251.61a15,15,0,0,0-29.63,4.7l1.66,10.51a272.18,272.18,0,0,0-285.66,3.38A20,20,0,0,0,375.86,304a232.23,232.23,0,0,1,240.64-4.64L606,301a15,15,0,0,0,2.33,29.82,15.75,15.75,0,0,0,2.36-.19l53.4-8.46A15,15,0,0,0,676.52,305Z"/><path d="M624.14,696a232.22,232.22,0,0,1-248.53-.15,20,20,0,1,0-21.47,33.74,272.18,272.18,0,0,0,291.43.18A20,20,0,1,0,624.14,696Z"/><path d="M297.8,348.26a20,20,0,0,0-27.6,6.17A272.21,272.21,0,0,0,270,645.29a20,20,0,0,0,33.8-21.4,232.21,232.21,0,0,1,.16-248A20,20,0,0,0,297.8,348.26Z"/><path d="M702,348a20,20,0,0,0-6.13,27.61A232.22,232.22,0,0,1,696,624.14a20,20,0,1,0,33.77,21.43,272.18,272.18,0,0,0-.18-291.43A20,20,0,0,0,702,348Z"/></svg>