<svg id="Calque_1" data-name="Calque 1" xmlns="http://www.w3.org/2000/svg" viewBox="0 0 1000 1000"><path d="M752.1,819.83H248.47a20,20,0,1,0,0,40H752.1a20,20,0,0,0,0-40Z"/><path d="M752.1,391.49H548.28L692.41,247.37a20,20,0,0,0-28.29-28.29L520,363.2V159.39a20,20,0,0,0-40,0V363.21L335.88,219.08a20,20,0,0,0-28.29,28.29L451.72,391.49H247.9a20,20,0,1,0,0,40H451.72L307.59,575.61a20,20,0,0,0,28.29,28.28L480,459.77V663.59a20,20,0,1,0,40,0V459.77L664.12,603.89a20,20,0,0,0,28.29-28.28L548.28,431.49H752.1a20,20,0,1,0,0-40Z"/></svg>