<svg id="Calque_1" data-name="Calque 1" xmlns="http://www.w3.org/2000/svg" viewBox="0 0 1000 1000"><path d="M794.35,627.6a36.88,36.88,0,0,0-35.35-.86L548.89,505.44a48.9,48.9,0,0,0,.31-5.44c0-1.64-.08-3.27-.24-4.87L759,373.86a36.93,36.93,0,1,0-20-34.64L529.15,460.37a49,49,0,0,0-9.15-5.32V212.78a36.94,36.94,0,1,0-40,0V455.05a49,49,0,0,0-9.15,5.32L261,339.22a36.93,36.93,0,1,0-20,34.64L451,495.13c-.16,1.6-.24,3.23-.24,4.87a48.9,48.9,0,0,0,.31,5.44L241,626.74a36.93,36.93,0,1,0,20,34.64L471.31,540a49.46,49.46,0,0,0,8.69,5V787.82a36.94,36.94,0,1,0,40,0V545a49.46,49.46,0,0,0,8.69-5L739,661.38a36.93,36.93,0,1,0,55.35-33.78Z"/></svg>