<svg id="Calque_1" data-name="Calque 1" xmlns="http://www.w3.org/2000/svg" viewBox="0 0 1000 1000"><path d="M607.08,467.28a38,38,0,1,0,51.9,13.9A38,38,0,0,0,607.08,467.28Z"/><path d="M772,784.85V284.56C772,205.4,706.54,141,626.08,141S480.15,205.4,480.15,284.56v430.9c0,57.1-47.52,103.55-105.92,103.55S268.3,772.56,268.3,715.46V215.28a38,38,0,1,0-40,.34V715.46C228.3,794.61,293.76,859,374.23,859s145.92-64.4,145.92-143.55V284.56c0-57.11,47.52-103.56,105.93-103.56S732,227.45,732,284.56V785a38,38,0,1,0,40-.13Z"/></svg>