<svg xmlns="http://www.w3.org/2000/svg" xmlns:xlink="http://www.w3.org/1999/xlink" viewBox="0 0 300 300"><defs><style>.cls-1{fill:url(#Dégradé_sans_nom_44);}.cls-2{fill:#61dafb;}.cls-3,.cls-6,.cls-7,.cls-9{fill:none;}.cls-3{stroke:#61dafb;stroke-width:10.5px;}.cls-4{fill:#2e2e2e;}.cls-5{fill:#f5f5ff;}.cls-5,.cls-6,.cls-7{stroke:#2e2e2e;}.cls-5,.cls-6,.cls-7,.cls-9{stroke-linecap:round;stroke-linejoin:round;}.cls-5,.cls-6,.cls-9{stroke-width:0.5px;}.cls-7{stroke-width:0.61px;}.cls-8{fill:#fff;}.cls-9{stroke:#fff;}</style><linearGradient id="Dégradé_sans_nom_44" x1="94.77" y1="245.3" x2="222.29" y2="24.43" gradientUnits="userSpaceOnUse"><stop offset="0" stop-color="#fd0038"/><stop offset="0.19" stop-color="#f4003f"/><stop offset="0.51" stop-color="#da0052"/><stop offset="0.51" stop-color="#da0052"/><stop offset="0.99" stop-color="#6f005e"/></linearGradient></defs><title>Plan de travail 1</title><g id="Calque_1" data-name="Calque 1"><circle class="cls-1" cx="149.5" cy="150.5" r="127.5"/></g><g id="Calque_2" data-name="Calque 2"><circle class="cls-2" cx="151.12" cy="150.24" r="22.85"/><ellipse class="cls-3" cx="151.12" cy="150.24" rx="122.62" ry="46.82"/><ellipse class="cls-3" cx="151.12" cy="150.24" rx="46.82" ry="122.62" transform="translate(-54.87 95.69) rotate(-30)"/><ellipse class="cls-3" cx="151.12" cy="150.24" rx="122.62" ry="46.82" transform="translate(-54.55 205.99) rotate(-60)"/></g><g id="Calque_3" data-name="Calque 3"><path class="cls-4" d="M207.34,141.05a233.56,233.56,0,0,0-12.4-54.29,46.36,46.36,0,0,0-1.2-7.72,44.4,44.4,0,0,0-11.22-20.23A41.93,41.93,0,0,0,158.71,46.4c-.3,0-.6-.1-.9-.15s-.76-.1-1.14-.14c-.73-.08-1.45-.12-2.17-.17-.56,0-1.16-.06-1.73-.06h-.48a2.68,2.68,0,0,0-.4,0,0,0,0,0,0-.06,0c-19.76.21-36.31,14.23-41,33.14-.26,1-.47,2.12-.66,3.19-10,21.1-13.41,45.42-13,69a29.26,29.26,0,0,1,7.16-10.74,24.42,24.42,0,0,0,.07,20.23l0,.42h.22a2.29,2.29,0,0,0,.1.23l0-.23h94.9l-.36-.93c1.11-.3,2.52-.22,3.48-.67-.21-2.44-.41-4.88-.62-7.32,1.23,1.88,2.54,2.66,3.76,4.55-.76-6.22-1.79-13.7-3.54-19.72C204.32,138.25,206.32,138.94,207.34,141.05Z"/><path class="cls-5" d="M172.37,184.93a20.17,20.17,0,1,1-40.31.69c0-.23,0-.46,0-.69l2.25-30.77.28-4,1.4-19.12h32.41l1.45,19.83.32,4.33Z"/><path class="cls-4" d="M171.25,169.89c-10.22,1.25-21.74-3.66-29.54-13.63a37.57,37.57,0,0,1-6.64-13l.92-12.41h32.4l1.45,19.83.33,4.33Z"/><path class="cls-5" d="M179.71,100.23c-4.07,6.54-3.68,14.29.88,17.3s11.55.16,15.62-6.38,3.68-14.28-.88-17.3S183.78,93.69,179.71,100.23Z"/><path class="cls-6" d="M191.9,97a6.08,6.08,0,0,1,1.59,10.4"/><path class="cls-5" d="M124.74,100.23c4.07,6.54,3.68,14.29-.88,17.3s-11.55.16-15.62-6.38-3.68-14.28.88-17.3S120.67,93.69,124.74,100.23Z"/><path class="cls-6" d="M112.55,97a6.07,6.07,0,0,0-1.59,10.4"/><path class="cls-5" d="M190.48,89.42c0,.62,0,1.22,0,1.8-.07,1.76-.21,3.54-.44,5.27L189.76,99l-.11,1.34-.18,1.94c-.1,1.18-.17,2.34-.26,3.5,0,.74-.07,1.46-.12,2.2-.16,2.93-.32,5.83-.71,8.72a1.06,1.06,0,0,1,0,.14c-.07.55-.16,1.11-.27,1.64v0a17.17,17.17,0,0,1-.37,1.76,23,23,0,0,1-.68,2.62v0a7.41,7.41,0,0,1-.3,1c-.2.64-.46,1.29-.71,1.94a39.44,39.44,0,0,1-2.46,5,55.66,55.66,0,0,1-16,17.35s-.07.07-.09.07c-.74.53-1.48,1-2.2,1.44a24,24,0,0,1-23.74.87,31.76,31.76,0,0,1-4.6-2.8s0,0,0,0a52.64,52.64,0,0,1-14.66-16.89c-.28-.48-.53-.93-.79-1.41l-.37-.76c-.21-.4-.42-.84-.63-1.28-.6-1.15-1.13-2.34-1.62-3.51-.13-.33-.27-.65-.37-1-1.78-4.69-2.42-9.92-2.84-15.08-.07-.79-.14-1.62-.19-2.41s-.14-1.82-.21-2.7l-.22-2.41c0-.26-.08-.53-.12-.77s-.1-.59-.14-.89c-.19-1.09-.33-2.2-.46-3.34-.17-1.87-.28-3.81-.28-5.8a4.61,4.61,0,0,1,0-.51c0-.91,0-1.81.09-2.71,0-.32,0-.63,0-1,.09-1,.21-2.06.37-3a47.91,47.91,0,0,1,5.65-16.78,40.77,40.77,0,0,1,2.29-3.61,40.16,40.16,0,0,1,9.76-9.87c.26-.21.55-.4.81-.58l1-.67a37.1,37.1,0,0,1,4.07-2.18,33.39,33.39,0,0,1,13.14-3.06s0,0,.05,0v0c.23,0,.48,0,.71,0h.23c.58,0,1.21,0,1.79.07.78,0,1.52.09,2.28.2a9.21,9.21,0,0,1,1.19.16c.32,0,.64.1.95.15A33.41,33.41,0,0,1,166,48.39a33,33,0,0,1,5.39,3c.09.06.18.13.27.18a32.66,32.66,0,0,1,3.13,2.38,42.15,42.15,0,0,1,9.58,11.69v0c.18.26.3.53.46.79,0,0,0,0,0,0a48.57,48.57,0,0,1,5.05,15.62s0,.07,0,.12c.16,1,.26,2,.35,3a4.73,4.73,0,0,1,0,.53c.09,1,.12,2.08.12,3.13A4.61,4.61,0,0,1,190.48,89.42Z"/><path class="cls-4" d="M132.31,51.94a134,134,0,0,1-17,47c-.1.16-.2.35-.31.53a6.56,6.56,0,0,1-.14-.87c-.19-1.11-.33-2.21-.45-3.36-.18-1.85-.29-3.8-.29-5.79a4.18,4.18,0,0,1,0-.5,43.55,43.55,0,0,1,.51-6.72,46.89,46.89,0,0,1,7.94-20.39A40.34,40.34,0,0,1,132.31,51.94Z"/><path class="cls-4" d="M190.59,89.42c0,.63,0,1.23,0,1.79-.06,1.77-.21,3.54-.44,5.27L189.87,99l-.11,1.34c-.32-.52-.61-1-.84-1.39A133.82,133.82,0,0,1,171.8,51.55a35.38,35.38,0,0,1,3.14,2.37,42.29,42.29,0,0,1,10,12.51,0,0,0,0,1,0,0,48.49,48.49,0,0,1,5.07,15.63s0,.08,0,.12a47.64,47.64,0,0,1,.5,6.72A4.18,4.18,0,0,1,190.59,89.42Z"/><path class="cls-4" d="M190.45,85.78A8,8,0,0,1,186.66,88c-4.15,1-8.47-1.88-10.48-5.67s-1.39-9-1.6-13.24c-.91,6.86-5.53,12.59-11.32,16.41,4.4-4.51,5.86-12,4.86-18.26a18.33,18.33,0,0,1-1.59,4.27,26.42,26.42,0,0,1-23.79,14.26l-11.12-.06c5.45-2.76,8.53-8.56,11.28-14a53.36,53.36,0,0,1-23.31,15.7,5.25,5.25,0,0,1-5.38-1.13l0,0,0,0c.09-1.35.24-2.68.44-4a48.12,48.12,0,0,1,5.65-16.78c.71-1.25,1.47-2.45,2.29-3.61a40.51,40.51,0,0,1,9.76-9.87c.27-.21.55-.4.81-.58l1-.67a37,37,0,0,1,4.06-2.18,33.39,33.39,0,0,1,13.14-3.06s0,0,.06,0v0c.23,0,.47,0,.7,0h.23c.58,0,1.21,0,1.8.07.77,0,1.51.09,2.27.2a9.61,9.61,0,0,1,1.2.16c.31,0,.63.1.95.15a33.73,33.73,0,0,1,7.61,2.42,32.88,32.88,0,0,1,5.38,3c.09.06.18.13.27.18a32.66,32.66,0,0,1,3.13,2.38,42.15,42.15,0,0,1,9.58,11.69v0c.18.26.3.53.46.79,0,0,0,0,0,0a48.34,48.34,0,0,1,5.06,15.62s0,.07,0,.12c.19,1.15.3,2.34.4,3.56Z"/><path class="cls-4" d="M179.6,76.54a45.53,45.53,0,0,1,.82,54.62c7.41-7,12.2-14.9,13.25-25.06a43.59,43.59,0,0,0-7.47-29,6.19,6.19,0,0,0-2.86-2.6C182.1,74,179.81,75.24,179.6,76.54Z"/><path class="cls-7" d="M148.09,122.92a6.66,6.66,0,0,0,8.27.39"/><path class="cls-4" d="M73.59,249.41c14.3,6.45,27.36,8.44,29.16,4.44s-8.32-12.47-22.63-18.93S52.76,226.48,51,230.48,59.28,243,73.59,249.41Z"/><path class="cls-5" d="M39.62,296c.05-.18.12-.33.17-.51l19.06-54.44L63,229.18l8.38-24a24.8,24.8,0,0,1,14.78-15.47,19.4,19.4,0,0,1,6.46-1.13,18.1,18.1,0,0,1,6,1c11.23,3.94,16.27,18,11,30.69l-10.92,26-4,9.42-3.23,7.68L77.8,296"/><path class="cls-4" d="M51.27,230c2.64-3.34,15.17-1.24,28.85,4.92,14.3,6.46,24.45,14.93,22.63,18.94l-.15.24.15.07,15.8-37c6.2-14.54-.5-31.13-14.59-36.05a24.42,24.42,0,0,0-8.08-1.38,26.93,26.93,0,0,0-23.65,15Z"/><path class="cls-4" d="M228.12,249.41c-14.3,6.45-27.36,8.44-29.17,4.44s8.33-12.47,22.63-18.93,27.37-8.44,29.17-4.44S242.42,243,228.12,249.41Z"/><path class="cls-5" d="M223.91,296,209.4,261.5l-2.4-5.73-4-9.42-2.62-6.23L196,229.48l-3.84-9.13c-5.32-12.66-.26-26.75,11-30.69a18,18,0,0,1,6-1,19.22,19.22,0,0,1,5.26.76c7,2,13.16,7.75,16,15.84l8.39,24,4.15,11.87,19.06,54.44c.05.18.12.33.18.51"/><path class="cls-4" d="M250.44,230c-2.64-3.34-15.17-1.24-28.85,4.92-14.3,6.46-24.45,14.93-22.63,18.94a1.58,1.58,0,0,0,.15.24l-.15.07-15.8-37c-6.2-14.54.5-31.13,14.59-36.05a24.38,24.38,0,0,1,8.08-1.38c9.65,0,18.9,5.72,23.65,15Z"/><path class="cls-4" d="M215.39,212l-4.51,21.56a31.14,31.14,0,0,1,2.08,6.22,32.71,32.71,0,0,1,.76,7,31,31,0,0,1-1.1,8.28,30.56,30.56,0,0,1-2.51,6.52,32.54,32.54,0,0,1-6.89,9L197.92,296H102.51l-5.3-26.24a32.13,32.13,0,0,1-9.72-23.06,32.79,32.79,0,0,1,1-7.92A33.78,33.78,0,0,1,90,234.13L85.53,212c-1.92-8.17-1.55-16.16,1.34-22.19a17.39,17.39,0,0,1,12.49-9.91,23.91,23.91,0,0,1,5-.5H199a23,23,0,0,1,4.86.5A15,15,0,0,1,215,189.39C217.52,195.47,217.34,203.62,215.39,212Z"/><path class="cls-8" d="M215.38,211.94l-2.1,10.81-2.17,10.8,0-.14a32.21,32.21,0,0,1,2.69,9.76,32.69,32.69,0,0,1-.52,10.11,31.87,31.87,0,0,1-3.64,9.42,32.23,32.23,0,0,1-6.4,7.78,34.07,34.07,0,0,0,3.38-3.73,36.13,36.13,0,0,0,2.77-4.19,32.74,32.74,0,0,0,3.46-9.37,32.34,32.34,0,0,0-2.15-19.6.2.2,0,0,1,0-.13L213,222.69Z"/><path class="cls-8" d="M97.21,269.76a32.39,32.39,0,0,1-5.92-7.6,31.94,31.94,0,0,1-3.37-9.06,32.69,32.69,0,0,1-.51-9.67,32.29,32.29,0,0,1,2.39-9.38v.13q-2.22-11.1-4.25-22.24Q88,223,90.24,234.09a.2.2,0,0,1,0,.13A32.6,32.6,0,0,0,91.54,262a35.21,35.21,0,0,0,2.55,4.08A36.12,36.12,0,0,0,97.21,269.76Z"/><rect class="cls-4" x="126.82" y="171.46" width="47.57" height="14.48"/><path class="cls-9" d="M175.15,178.91c.15,1.8.23,3.64.23,5.5,0,22.26-11,40.3-24.56,40.3s-24.56-18-24.56-40.3c0-1.58,0-3.15.16-4.69"/></g></svg>